<mxfile host="app.diagrams.net" modified="2021-03-07T13:24:23.526Z" agent="5.0 (Windows NT 10.0; Win64; x64) AppleWebKit/537.36 (KHTML, like Gecko) Chrome/88.0.4324.190 Safari/537.36" etag="l0x0cIXgxWyMYLXIwi9f" version="14.4.2" type="github">
  <diagram id="I5ob7cJA1xJSA5w13-83" name="第 1 页">
    <mxGraphModel dx="1422" dy="744" grid="1" gridSize="10" guides="1" tooltips="1" connect="1" arrows="1" fold="1" page="1" pageScale="1" pageWidth="827" pageHeight="1169" math="0" shadow="0">
      <root>
        <mxCell id="0" />
        <mxCell id="1" parent="0" />
        <mxCell id="YtooCMQX7VUCMK-XwJnW-1" value="" style="rounded=0;whiteSpace=wrap;html=1;strokeWidth=1;fontSize=7;" parent="1" vertex="1">
          <mxGeometry x="390" y="415" width="201" height="185" as="geometry" />
        </mxCell>
        <mxCell id="YtooCMQX7VUCMK-XwJnW-2" value="" style="rounded=0;whiteSpace=wrap;html=1;" parent="1" vertex="1">
          <mxGeometry x="113" y="200" width="237" height="400" as="geometry" />
        </mxCell>
        <mxCell id="YtooCMQX7VUCMK-XwJnW-4" value="" style="rounded=0;whiteSpace=wrap;html=1;strokeWidth=1;fontSize=16;" parent="1" vertex="1">
          <mxGeometry x="133" y="220" width="197" height="28" as="geometry" />
        </mxCell>
        <mxCell id="YtooCMQX7VUCMK-XwJnW-5" value="&lt;font style=&quot;font-size: 13px;&quot;&gt;Inputs(3, 608, 608)&lt;/font&gt;" style="text;html=1;resizable=0;autosize=1;align=center;verticalAlign=middle;points=[];fillColor=none;strokeColor=none;rounded=0;fontSize=13;" parent="1" vertex="1">
          <mxGeometry x="187" y="224" width="121" height="20" as="geometry" />
        </mxCell>
        <mxCell id="YtooCMQX7VUCMK-XwJnW-6" value="&lt;span style=&quot;color: rgb(0 , 0 , 0) ; font-family: &amp;#34;helvetica&amp;#34; ; font-style: normal ; font-weight: 400 ; letter-spacing: normal ; text-align: center ; text-indent: 0px ; text-transform: none ; word-spacing: 0px ; background-color: rgb(248 , 249 , 250) ; display: inline ; float: none ; font-size: 7px&quot;&gt;&lt;font style=&quot;font-size: 7px&quot;&gt;Conv + MaxPooling(16, 304, 304)&lt;/font&gt;&lt;/span&gt;" style="rounded=0;whiteSpace=wrap;html=1;strokeWidth=1;fontSize=7;" parent="1" vertex="1">
          <mxGeometry x="133" y="267" width="197" height="28" as="geometry" />
        </mxCell>
        <mxCell id="YtooCMQX7VUCMK-XwJnW-7" value="&lt;span style=&quot;font-family: &amp;#34;helvetica&amp;#34;&quot;&gt;Conv + MaxPooling(32, 152, 152)&lt;/span&gt;" style="rounded=0;whiteSpace=wrap;html=1;strokeWidth=1;fontSize=7;" parent="1" vertex="1">
          <mxGeometry x="132.5" y="313" width="197.5" height="28" as="geometry" />
        </mxCell>
        <mxCell id="YtooCMQX7VUCMK-XwJnW-8" value="" style="endArrow=classic;html=1;fontSize=7;" parent="1" edge="1">
          <mxGeometry width="50" height="50" relative="1" as="geometry">
            <mxPoint x="247.16000000000008" y="247.9999999999999" as="sourcePoint" />
            <mxPoint x="247.16000000000008" y="267" as="targetPoint" />
          </mxGeometry>
        </mxCell>
        <mxCell id="YtooCMQX7VUCMK-XwJnW-9" value="" style="endArrow=classic;html=1;fontSize=7;" parent="1" edge="1">
          <mxGeometry width="50" height="50" relative="1" as="geometry">
            <mxPoint x="246.66000000000008" y="295" as="sourcePoint" />
            <mxPoint x="246.66000000000008" y="314" as="targetPoint" />
          </mxGeometry>
        </mxCell>
        <mxCell id="YtooCMQX7VUCMK-XwJnW-10" value="&lt;span style=&quot;font-family: &amp;#34;helvetica&amp;#34;&quot;&gt;Conv + MaxPooling(64, 76, 76)&lt;/span&gt;" style="rounded=0;whiteSpace=wrap;html=1;strokeWidth=1;fontSize=7;" parent="1" vertex="1">
          <mxGeometry x="133" y="359" width="197" height="28" as="geometry" />
        </mxCell>
        <mxCell id="YtooCMQX7VUCMK-XwJnW-11" value="" style="endArrow=classic;html=1;fontSize=7;" parent="1" edge="1">
          <mxGeometry width="50" height="50" relative="1" as="geometry">
            <mxPoint x="247.16000000000008" y="341" as="sourcePoint" />
            <mxPoint x="247.16000000000008" y="360" as="targetPoint" />
          </mxGeometry>
        </mxCell>
        <mxCell id="YtooCMQX7VUCMK-XwJnW-12" value="&lt;span style=&quot;font-family: &amp;#34;helvetica&amp;#34;&quot;&gt;Conv + MaxPooling(128, 38, 38)&lt;/span&gt;" style="rounded=0;whiteSpace=wrap;html=1;strokeWidth=1;fontSize=7;" parent="1" vertex="1">
          <mxGeometry x="133" y="405" width="197" height="28" as="geometry" />
        </mxCell>
        <mxCell id="YtooCMQX7VUCMK-XwJnW-13" value="&lt;span style=&quot;font-family: &amp;#34;helvetica&amp;#34;&quot;&gt;Conv + MaxPooling(256, 19, 19)&lt;/span&gt;" style="rounded=0;whiteSpace=wrap;html=1;strokeWidth=1;fontSize=7;" parent="1" vertex="1">
          <mxGeometry x="133" y="451" width="197" height="28" as="geometry" />
        </mxCell>
        <mxCell id="YtooCMQX7VUCMK-XwJnW-14" value="" style="endArrow=classic;html=1;fontSize=7;" parent="1" edge="1">
          <mxGeometry width="50" height="50" relative="1" as="geometry">
            <mxPoint x="246.66000000000008" y="387" as="sourcePoint" />
            <mxPoint x="246.66000000000008" y="406" as="targetPoint" />
          </mxGeometry>
        </mxCell>
        <mxCell id="YtooCMQX7VUCMK-XwJnW-15" value="" style="endArrow=classic;html=1;fontSize=7;" parent="1" edge="1">
          <mxGeometry width="50" height="50" relative="1" as="geometry">
            <mxPoint x="247.16000000000008" y="432" as="sourcePoint" />
            <mxPoint x="247.16000000000008" y="451" as="targetPoint" />
          </mxGeometry>
        </mxCell>
        <mxCell id="YtooCMQX7VUCMK-XwJnW-16" value="&lt;span style=&quot;font-family: &amp;#34;helvetica&amp;#34;&quot;&gt;Conv + MaxPooling(512, 19, 19)&lt;/span&gt;" style="rounded=0;whiteSpace=wrap;html=1;strokeWidth=1;fontSize=7;" parent="1" vertex="1">
          <mxGeometry x="133" y="497" width="197" height="28" as="geometry" />
        </mxCell>
        <mxCell id="YtooCMQX7VUCMK-XwJnW-17" value="" style="endArrow=classic;html=1;fontSize=7;" parent="1" edge="1">
          <mxGeometry width="50" height="50" relative="1" as="geometry">
            <mxPoint x="247.16000000000008" y="478" as="sourcePoint" />
            <mxPoint x="247.16000000000008" y="497" as="targetPoint" />
          </mxGeometry>
        </mxCell>
        <mxCell id="YtooCMQX7VUCMK-XwJnW-19" value="&lt;span style=&quot;color: rgb(0 , 0 , 0) ; font-family: &amp;#34;helvetica&amp;#34; ; font-style: normal ; letter-spacing: normal ; text-align: center ; text-indent: 0px ; text-transform: none ; word-spacing: 0px ; background-color: rgb(248 , 249 , 250) ; display: inline ; float: none ; font-size: 7px&quot;&gt;&lt;font style=&quot;font-size: 7px&quot;&gt;Concat&lt;/font&gt;&lt;/span&gt;" style="rounded=0;whiteSpace=wrap;html=1;strokeWidth=1;fontSize=7;" parent="1" vertex="1">
          <mxGeometry x="430.5" y="451" width="58" height="28" as="geometry" />
        </mxCell>
        <mxCell id="YtooCMQX7VUCMK-XwJnW-20" value="Conv + UpSampling" style="rounded=0;whiteSpace=wrap;html=1;strokeWidth=1;fontSize=7;" parent="1" vertex="1">
          <mxGeometry x="398" y="508" width="123" height="22" as="geometry" />
        </mxCell>
        <mxCell id="YtooCMQX7VUCMK-XwJnW-21" value="&lt;font face=&quot;helvetica&quot; style=&quot;font-size: 11px&quot;&gt;Yolo Head1&lt;/font&gt;" style="rounded=0;whiteSpace=wrap;html=1;strokeWidth=1;fontSize=7;" parent="1" vertex="1">
          <mxGeometry x="614" y="451" width="74" height="28" as="geometry" />
        </mxCell>
        <mxCell id="YtooCMQX7VUCMK-XwJnW-22" value="&lt;font style=&quot;font-size: 17px&quot;&gt;FPN&lt;/font&gt;" style="text;html=1;resizable=0;autosize=1;align=center;verticalAlign=middle;points=[];fillColor=none;strokeColor=none;rounded=0;fontSize=7;" parent="1" vertex="1">
          <mxGeometry x="390.5" y="427" width="42" height="14" as="geometry" />
        </mxCell>
        <mxCell id="YtooCMQX7VUCMK-XwJnW-23" value="" style="endArrow=classic;html=1;" parent="1" edge="1">
          <mxGeometry width="50" height="50" relative="1" as="geometry">
            <mxPoint x="459" y="560" as="sourcePoint" />
            <mxPoint x="459.3" y="530" as="targetPoint" />
          </mxGeometry>
        </mxCell>
        <mxCell id="YtooCMQX7VUCMK-XwJnW-25" value="" style="endArrow=classic;html=1;exitX=1;exitY=0.5;exitDx=0;exitDy=0;" parent="1" source="YtooCMQX7VUCMK-XwJnW-41" edge="1">
          <mxGeometry width="50" height="50" relative="1" as="geometry">
            <mxPoint x="568" y="465.04999999999995" as="sourcePoint" />
            <mxPoint x="614" y="464.71000000000004" as="targetPoint" />
          </mxGeometry>
        </mxCell>
        <mxCell id="YtooCMQX7VUCMK-XwJnW-26" value="&lt;font face=&quot;helvetica&quot; style=&quot;font-size: 11px&quot;&gt;Yolo Head2&lt;/font&gt;" style="rounded=0;whiteSpace=wrap;html=1;strokeWidth=1;fontSize=7;" parent="1" vertex="1">
          <mxGeometry x="614" y="546" width="74" height="28" as="geometry" />
        </mxCell>
        <mxCell id="YtooCMQX7VUCMK-XwJnW-27" value="" style="endArrow=classic;html=1;exitX=0.5;exitY=0;exitDx=0;exitDy=0;entryX=0.5;entryY=1;entryDx=0;entryDy=0;" parent="1" source="YtooCMQX7VUCMK-XwJnW-20" target="YtooCMQX7VUCMK-XwJnW-19" edge="1">
          <mxGeometry width="50" height="50" relative="1" as="geometry">
            <mxPoint x="493.79999999999995" y="490.5" as="sourcePoint" />
            <mxPoint x="494" y="480" as="targetPoint" />
          </mxGeometry>
        </mxCell>
        <mxCell id="YtooCMQX7VUCMK-XwJnW-28" value="(128, 38, 38)" style="text;html=1;resizable=0;autosize=1;align=center;verticalAlign=middle;points=[];fillColor=none;strokeColor=none;rounded=0;" parent="1" vertex="1">
          <mxGeometry x="468" y="484" width="77" height="18" as="geometry" />
        </mxCell>
        <mxCell id="YtooCMQX7VUCMK-XwJnW-29" value="(256, 19, 19)" style="text;html=1;resizable=0;autosize=1;align=center;verticalAlign=middle;points=[];fillColor=none;strokeColor=none;rounded=0;" parent="1" vertex="1">
          <mxGeometry x="411.5" y="567" width="77" height="18" as="geometry" />
        </mxCell>
        <mxCell id="YtooCMQX7VUCMK-XwJnW-32" value="" style="endArrow=classic;html=1;exitX=1;exitY=0.5;exitDx=0;exitDy=0;entryX=0;entryY=0.5;entryDx=0;entryDy=0;" parent="1" source="YtooCMQX7VUCMK-XwJnW-13" target="YtooCMQX7VUCMK-XwJnW-19" edge="1">
          <mxGeometry width="50" height="50" relative="1" as="geometry">
            <mxPoint x="363" y="465" as="sourcePoint" />
            <mxPoint x="451" y="464.8299999999999" as="targetPoint" />
          </mxGeometry>
        </mxCell>
        <mxCell id="YtooCMQX7VUCMK-XwJnW-33" value="(256, 38, 38)" style="text;html=1;resizable=0;autosize=1;align=center;verticalAlign=middle;points=[];fillColor=none;strokeColor=none;rounded=0;" parent="1" vertex="1">
          <mxGeometry x="334" y="441" width="77" height="18" as="geometry" />
        </mxCell>
        <mxCell id="YtooCMQX7VUCMK-XwJnW-35" value="&lt;span style=&quot;font-family: &amp;#34;helvetica&amp;#34;&quot;&gt;Conv(1024) + Conv(256)&lt;/span&gt;" style="rounded=0;whiteSpace=wrap;html=1;strokeWidth=1;fontSize=7;" parent="1" vertex="1">
          <mxGeometry x="133" y="546" width="197" height="28" as="geometry" />
        </mxCell>
        <mxCell id="YtooCMQX7VUCMK-XwJnW-36" value="" style="endArrow=classic;html=1;fontSize=7;" parent="1" edge="1">
          <mxGeometry width="50" height="50" relative="1" as="geometry">
            <mxPoint x="246.76000000000008" y="525" as="sourcePoint" />
            <mxPoint x="246.76000000000008" y="544" as="targetPoint" />
          </mxGeometry>
        </mxCell>
        <mxCell id="YtooCMQX7VUCMK-XwJnW-38" value="Conv x 2" style="rounded=0;whiteSpace=wrap;html=1;strokeWidth=1;fontSize=7;" parent="1" vertex="1">
          <mxGeometry x="498.75" y="549" width="65.5" height="22" as="geometry" />
        </mxCell>
        <mxCell id="YtooCMQX7VUCMK-XwJnW-39" value="" style="endArrow=classic;html=1;entryX=0;entryY=0.5;entryDx=0;entryDy=0;" parent="1" target="YtooCMQX7VUCMK-XwJnW-38" edge="1">
          <mxGeometry width="50" height="50" relative="1" as="geometry">
            <mxPoint x="330" y="559.8" as="sourcePoint" />
            <mxPoint x="488" y="559.8" as="targetPoint" />
          </mxGeometry>
        </mxCell>
        <mxCell id="YtooCMQX7VUCMK-XwJnW-40" value="" style="endArrow=classic;html=1;entryX=0;entryY=0.5;entryDx=0;entryDy=0;" parent="1" target="YtooCMQX7VUCMK-XwJnW-26" edge="1">
          <mxGeometry width="50" height="50" relative="1" as="geometry">
            <mxPoint x="570" y="559.8" as="sourcePoint" />
            <mxPoint x="610" y="559.8" as="targetPoint" />
          </mxGeometry>
        </mxCell>
        <mxCell id="YtooCMQX7VUCMK-XwJnW-41" value="Conv x 2" style="rounded=0;whiteSpace=wrap;html=1;strokeWidth=1;fontSize=7;" parent="1" vertex="1">
          <mxGeometry x="498.75" y="454" width="65.5" height="22" as="geometry" />
        </mxCell>
        <mxCell id="YtooCMQX7VUCMK-XwJnW-42" value="" style="endArrow=none;html=1;" parent="1" edge="1">
          <mxGeometry width="50" height="50" relative="1" as="geometry">
            <mxPoint x="498" y="464.8" as="sourcePoint" />
            <mxPoint x="488.5" y="464.8" as="targetPoint" />
          </mxGeometry>
        </mxCell>
      </root>
    </mxGraphModel>
  </diagram>
</mxfile>
